<?xml version="1.0" standalone="no"?>
<!DOCTYPE svg PUBLIC "-//W3C//DTD SVG 20010904//EN"
 "http://www.w3.org/TR/2001/REC-SVG-20010904/DTD/svg10.dtd">
<svg version="1.0" xmlns="http://www.w3.org/2000/svg"
 width="2555.000000pt" height="1900.000000pt" viewBox="0 0 2555.000000 1900.000000"
 preserveAspectRatio="xMidYMid meet">

<g transform="translate(0.000000,1900.000000) scale(0.100000,-0.100000)"
fill="#000000" stroke="none">
<path d="M18835 17274 c-1131 -140 -2087 -874 -2509 -1927 -150 -372 -218
-733 -218 -1147 0 -606 153 -1140 474 -1653 163 -261 431 -562 678 -760 183
-147 668 -443 690 -421 5 5 52 77 106 159 189 293 347 488 580 715 563 550
1294 911 2074 1024 372 54 819 47 1200 -19 638 -110 1263 -405 1770 -834 142
-121 381 -366 493 -506 435 -544 709 -1187 803 -1885 25 -188 30 -642 10 -837
-71 -665 -288 -1255 -659 -1785 -739 -1055 -1971 -1660 -3254 -1597 -895 44
-1722 391 -2375 995 -540 501 -922 1153 -1097 1871 -70 289 -101 556 -101 886
l0 237 -300 0 -300 0 0 -122 c0 -313 28 -647 76 -908 333 -1819 1808 -3242
3639 -3510 397 -58 853 -60 1245 -4 841 119 1620 478 2263 1044 728 641 1226
1519 1402 2473 l25 138 0 649 0 649 -25 138 c-298 1617 -1487 2928 -3075 3389
-185 54 -434 105 -660 136 -147 20 -205 23 -540 23 -333 0 -394 -3 -540 -23
-829 -113 -1538 -412 -2170 -917 -275 -219 -492 -440 -746 -761 l-31 -39 -78
60 c-476 365 -814 898 -934 1475 -49 234 -66 560 -41 785 63 567 311 1091 706
1490 474 480 1106 745 1779 745 397 0 767 -85 1110 -255 305 -150 532 -326
803 -619 l91 -99 38 33 c113 99 393 365 391 372 -7 20 -312 329 -397 402 -451
389 -983 636 -1571 727 -180 28 -643 36 -825 13z"/>
<path d="M13115 13884 c-133 -11 -387 -48 -540 -79 -1589 -320 -2884 -1532
-3315 -3103 -198 -721 -206 -1485 -24 -2217 350 -1409 1424 -2576 2802 -3046
332 -113 615 -174 1017 -221 71 -8 715 -12 2248 -15 l2147 -4 0 296 0 295
-1987 0 c-1974 0 -2250 4 -2488 35 -782 102 -1501 438 -2077 971 -602 559
-1011 1312 -1148 2117 -42 248 -52 404 -47 707 5 287 16 396 58 625 213 1147
963 2137 2018 2664 379 190 775 309 1212 367 166 21 587 30 760 15 645 -56
1176 -237 1747 -593 78 -49 146 -88 152 -86 9 3 310 476 310 488 0 8 -310 199
-445 273 -372 203 -795 355 -1230 441 -281 56 -415 68 -780 71 -187 1 -362 1
-390 -1z"/>
<path d="M14243 9807 l-53 -9 0 -94 0 -95 -37 8 c-147 30 -237 -48 -237 -207
0 -86 14 -120 68 -168 48 -42 118 -55 221 -42 43 5 83 14 87 18 5 5 7 141 6
303 l-3 294 -52 -8z m-70 -290 c15 -10 17 -27 15 -117 l-3 -105 -46 -3 c-38
-2 -52 2 -75 21 -25 22 -29 33 -32 95 -4 65 -2 73 21 96 29 29 90 36 120 13z"/>
<path d="M12747 9803 l-28 -4 3 -262 c3 -287 5 -294 64 -322 18 -8 48 -15 68
-15 31 0 36 3 36 23 0 12 3 32 6 44 5 17 1 22 -17 25 -44 6 -49 36 -49 286 l0
232 -27 -1 c-16 -1 -41 -4 -56 -6z"/>
<path d="M21149 9792 c-28 -24 -31 -79 -4 -98 71 -52 158 41 89 95 -33 26 -55
26 -85 3z"/>
<path d="M12355 9744 c-48 -18 -109 -75 -138 -129 -28 -55 -35 -173 -14 -246
34 -115 117 -171 252 -173 75 -1 170 17 180 34 3 4 -1 25 -9 46 -10 29 -18 38
-32 36 -11 -1 -41 -6 -69 -10 -61 -9 -132 2 -158 26 -58 50 -74 174 -34 252
38 74 127 100 226 65 41 -14 42 -14 51 11 26 67 25 70 -26 88 -59 20 -175 20
-229 0z"/>
<path d="M19876 9750 c-60 -18 -106 -83 -106 -150 0 -79 33 -113 159 -164 36
-14 73 -33 83 -43 22 -20 24 -66 3 -83 -31 -26 -132 -23 -207 5 -11 4 -20 -6
-32 -35 -9 -22 -16 -42 -16 -44 0 -3 21 -13 48 -23 55 -21 187 -24 243 -5 20
7 49 26 65 43 24 25 29 39 32 98 4 64 2 70 -27 103 -18 20 -57 46 -93 62 -124
53 -133 58 -136 93 -2 24 2 34 19 43 27 15 114 15 151 -1 33 -14 30 -16 50 38
l16 42 -46 15 c-49 17 -158 20 -206 6z"/>
<path d="M21895 9733 c-11 -2 -30 -6 -43 -9 l-23 -5 3 -217 c3 -193 5 -220 22
-245 23 -34 48 -48 101 -58 34 -6 131 4 142 15 2 2 1 21 -3 42 l-6 39 -61 0
c-55 0 -62 2 -74 25 -9 16 -12 56 -11 115 l3 90 68 3 67 3 0 44 0 45 -70 0
-70 0 0 60 c0 62 -1 63 -45 53z"/>
<path d="M13097 9620 c-46 -14 -93 -56 -116 -103 -27 -56 -28 -155 -2 -213 49
-107 202 -145 299 -74 57 41 77 89 77 186 0 72 -3 85 -28 123 -47 71 -147 106
-230 81z m122 -116 c25 -32 35 -82 26 -130 -16 -87 -106 -113 -153 -44 -32 47
-28 137 8 175 33 35 91 35 119 -1z"/>
<path d="M20378 9620 c-133 -40 -190 -205 -113 -335 57 -98 207 -122 295 -48
70 58 96 190 55 276 -42 88 -145 135 -237 107z m97 -96 c26 -10 45 -59 45
-114 0 -55 -19 -104 -45 -114 -60 -23 -108 5 -125 73 -26 109 38 188 125 155z"/>
<path d="M20868 9620 c-93 -28 -148 -107 -148 -213 0 -36 5 -78 11 -94 30 -81
130 -131 238 -118 76 9 80 12 72 60 l-6 40 -67 -3 c-36 -2 -75 1 -87 7 -50 27
-67 129 -31 188 22 37 52 47 120 41 l48 -5 11 41 c5 22 8 42 6 44 -7 8 -81 22
-110 21 -16 0 -42 -4 -57 -9z"/>
<path d="M21487 9620 c-82 -25 -137 -109 -137 -210 0 -162 109 -241 291 -210
65 11 70 14 65 34 -3 11 -6 30 -6 41 0 19 -6 20 -95 20 -81 0 -97 3 -114 20
-11 11 -21 29 -23 40 -3 19 3 20 130 23 l132 3 0 54 c0 29 -5 66 -11 82 -32
84 -138 131 -232 103z m107 -102 c13 -13 27 -33 31 -45 6 -23 5 -23 -80 -23
-85 0 -86 0 -79 23 19 63 83 85 128 45z"/>
<path d="M13462 9456 c3 -149 5 -167 24 -193 39 -52 78 -67 168 -65 45 1 97 6
116 10 l35 8 3 202 2 202 -55 0 -55 0 0 -165 0 -165 -42 0 c-79 0 -88 20 -88
194 l0 136 -56 0 -55 0 3 -164z"/>
<path d="M21140 9410 l0 -210 55 0 55 0 0 210 0 210 -55 0 -55 0 0 -210z"/>
<path d="M22150 9616 c0 -15 78 -224 114 -305 40 -90 42 -100 29 -124 -15 -30
-49 -42 -97 -34 -33 5 -34 4 -40 -35 -9 -53 1 -60 88 -56 67 4 70 5 106 45 21
25 56 87 83 150 44 104 127 335 127 355 0 5 -25 8 -56 6 l-56 -3 -33 -115
c-18 -63 -38 -126 -43 -140 l-10 -25 -12 30 c-16 41 -57 167 -70 216 l-11 39
-59 0 c-33 0 -60 -2 -60 -4z"/>
</g>
</svg>
